<?xml version="1.0" encoding="UTF-8" standalone="no"?>
<!DOCTYPE svg PUBLIC "-//W3C//DTD SVG 1.1//EN"
 "http://www.w3.org/Graphics/SVG/1.1/DTD/svg11.dtd">
<!-- Generated by graphviz version 2.47.0 (20210316.0004)
 -->
<!-- Title: dependencies Pages: 1 -->
<svg width="504pt" height="211pt"
 viewBox="0.00 0.00 504.00 211.00" xmlns="http://www.w3.org/2000/svg" xmlns:xlink="http://www.w3.org/1999/xlink">
<g id="graph0" class="graph" transform="scale(1 1) rotate(0) translate(4 207)">
<title>dependencies</title>
<polygon fill="white" stroke="transparent" points="-4,4 -4,-207 500,-207 500,4 -4,4"/>
<text text-anchor="start" x="227.01" y="-42.4" font-family="Times-12" font-weight="bold" font-size="14.00">Legend</text>
<polygon fill="#ffffb3" stroke="transparent" points="14,-10 14,-30 34,-30 34,-10 14,-10"/>
<text text-anchor="start" x="37.63" y="-15.4" font-family="Times-12" font-size="14.00"> &#160;Declarations</text>
<polygon fill="#8dd3c7" stroke="transparent" points="127,-10 127,-30 147,-30 147,-10 127,-10"/>
<text text-anchor="start" x="150.73" y="-15.4" font-family="Times-12" font-size="14.00"> &#160;Module</text>
<polygon fill="#80b1d3" stroke="transparent" points="213,-10 213,-30 233,-30 233,-10 213,-10"/>
<text text-anchor="start" x="236.78" y="-15.4" font-family="Times-12" font-size="14.00"> &#160;Bootstrap</text>
<polygon fill="#fdb462" stroke="transparent" points="310,-10 310,-30 330,-30 330,-10 310,-10"/>
<text text-anchor="start" x="333.67" y="-15.4" font-family="Times-12" font-size="14.00"> &#160;Providers</text>
<polygon fill="#fb8072" stroke="transparent" points="406,-10 406,-30 426,-30 426,-10 406,-10"/>
<text text-anchor="start" x="429.73" y="-15.4" font-family="Times-12" font-size="14.00"> &#160;Exports</text>
<g id="clust1" class="cluster">
<title>cluster_MatchesPageModule</title>
<polygon fill="none" stroke="black" stroke-dasharray="1,5" points="27,-70 27,-195 469,-195 469,-70 27,-70"/>
</g>
<g id="clust2" class="cluster">
<title>cluster_MatchesPageModule_declarations</title>
<polygon fill="none" stroke="black" points="355,-78 355,-130 461,-130 461,-78 355,-78"/>
</g>
<g id="clust4" class="cluster">
<title>cluster_MatchesPageModule_imports</title>
<polygon fill="none" stroke="black" points="35,-78 35,-130 347,-130 347,-78 35,-78"/>
</g>
<!-- MatchesPage -->
<g id="node1" class="node">
<title>MatchesPage</title>
<polygon fill="#ffffb3" stroke="black" points="453.14,-122 362.86,-122 362.86,-86 453.14,-86 453.14,-122"/>
<text text-anchor="middle" x="408" y="-99.8" font-family="Times,serif" font-size="14.00">MatchesPage</text>
</g>
<!-- MatchesPageModule -->
<g id="node2" class="node">
<title>MatchesPageModule</title>
<polygon fill="#8dd3c7" stroke="black" points="316.19,-187 313.19,-191 292.19,-191 289.19,-187 181.81,-187 181.81,-151 316.19,-151 316.19,-187"/>
<text text-anchor="middle" x="249" y="-164.8" font-family="Times,serif" font-size="14.00">MatchesPageModule</text>
</g>
<!-- MatchesPage&#45;&gt;MatchesPageModule -->
<g id="edge1" class="edge">
<title>MatchesPage&#45;&gt;MatchesPageModule</title>
<path fill="none" stroke="black" d="M408,-122.11C408,-141.34 408,-169 408,-169 408,-169 326.43,-169 326.43,-169"/>
<polygon fill="black" stroke="black" points="326.43,-165.5 316.43,-169 326.43,-172.5 326.43,-165.5"/>
</g>
<!-- MatchesPageRoutingModule -->
<g id="node3" class="node">
<title>MatchesPageRoutingModule</title>
<polygon fill="#8dd3c7" stroke="black" points="338.8,-122 335.8,-126 314.8,-126 311.8,-122 159.2,-122 159.2,-86 338.8,-86 338.8,-122"/>
<text text-anchor="middle" x="249" y="-99.8" font-family="Times,serif" font-size="14.00">MatchesPageRoutingModule</text>
</g>
<!-- MatchesPageRoutingModule&#45;&gt;MatchesPageModule -->
<g id="edge2" class="edge">
<title>MatchesPageRoutingModule&#45;&gt;MatchesPageModule</title>
<path fill="none" stroke="black" d="M249,-122.11C249,-122.11 249,-140.99 249,-140.99"/>
<polygon fill="black" stroke="black" points="245.5,-140.99 249,-150.99 252.5,-140.99 245.5,-140.99"/>
</g>
<!-- SharedModule -->
<g id="node4" class="node">
<title>SharedModule</title>
<polygon fill="#8dd3c7" stroke="black" points="141.42,-122 138.42,-126 117.42,-126 114.42,-122 42.58,-122 42.58,-86 141.42,-86 141.42,-122"/>
<text text-anchor="middle" x="92" y="-99.8" font-family="Times,serif" font-size="14.00">SharedModule</text>
</g>
<!-- SharedModule&#45;&gt;MatchesPageModule -->
<g id="edge3" class="edge">
<title>SharedModule&#45;&gt;MatchesPageModule</title>
<path fill="none" stroke="black" d="M92,-122.11C92,-141.34 92,-169 92,-169 92,-169 171.51,-169 171.51,-169"/>
<polygon fill="black" stroke="black" points="171.51,-172.5 181.51,-169 171.51,-165.5 171.51,-172.5"/>
</g>
</g>
</svg>
